# xmcd
#
# Track frame offsets: 
#        150
#        14828
#        28304
#        39253
#        52535
#        66334
#        79853
#        93967
#        105340
#        117944
#        130935
#        144205
#        157654
#        171189
#        182495
#        196200
#        208193
#        222164
#        237203
#        250651
#        262848
#        275637
#        289372
#        301805
#
# Disc length: 4212 seconds
#
# Revision: 0
# Processed by: cddbd v1.5.2PL0 Copyright (c) Steve Scherf et al.
# Submitted via: ExactAudioCopy v0.95b4
#
DISCID=47107218
DTITLE=Peggy Lee - Great Female Artists
DYEAR=1900
DGENRE=Vocal
TTITLE0=How long has this been going on?
TTITLE1=It's all over now 
TTITLE2=Why don't you do right
TTITLE3=Them there eyes
TTITLE4=Deed I do
TTITLE5=Baby don't be mad at me
TTITLE6=Don't smoke in bed
TTITLE7=All dressed up with a broken heart
TTITLE8=Caramba! it's the samba
TTITLE9=Talking to myself about you
TTITLE10=Manana
TTITLE11=Golden earings
TTITLE12=I'll dance at your wedding
TTITLE13=Sugar
TTITLE14=Chi baba, Chi baba
TTITLE15=I'm gald I waited for you
TTITLE16=Waiting for the train to come in
TTITLE17=I don't know enought about you
TTITLE18=Everything's moving too fast
TTITLE19=I see a million people
TTITLE20=It's a good day
TTITLE21=Linger in my arms a little longer, baby
TTITLE22=Shady lady bird
TTITLE23=My old flame
EXTD=
EXTT0=
EXTT1=
EXTT2=
EXTT3=
EXTT4=
EXTT5=
EXTT6=
EXTT7=
EXTT8=
EXTT9=
EXTT10=
EXTT11=
EXTT12=
EXTT13=
EXTT14=
EXTT15=
EXTT16=
EXTT17=
EXTT18=
EXTT19=
EXTT20=
EXTT21=
EXTT22=
EXTT23=
PLAYORDER=
